<?xml version="1.0" standalone="no"?>
<!DOCTYPE svg PUBLIC "-//W3C//DTD SVG 20010904//EN"
 "http://www.w3.org/TR/2001/REC-SVG-20010904/DTD/svg10.dtd">
<svg version="1.0" xmlns="http://www.w3.org/2000/svg"
 width="1280.000000pt" height="1014.000000pt" viewBox="0 0 1280.000000 1014.000000"
 preserveAspectRatio="xMidYMid meet">
<metadata>
Created by potrace 1.15, written by Peter Selinger 2001-2017
</metadata>
<g transform="translate(0.000000,1014.000000) scale(0.100000,-0.100000)"
fill="#000000" stroke="none">
<path d="M1023 10072 c-65 -27 -66 -30 -37 -107 27 -74 36 -97 116 -290 27
-66 68 -169 90 -230 22 -60 48 -128 58 -150 10 -22 37 -96 59 -164 39 -120 41
-140 11 -141 -10 0 -70 -59 -70 -69 0 -16 66 -81 83 -81 27 0 27 -14 2 -76
-13 -32 -26 -70 -28 -84 -5 -24 -23 -66 -107 -250 -22 -47 -42 -96 -46 -110
-3 -14 -15 -45 -25 -70 l-19 -45 -111 3 c-103 4 -115 2 -192 -26 -171 -64
-290 -79 -463 -57 -138 17 -144 18 -144 8 1 -25 36 -39 211 -85 107 -27 211
-59 231 -69 20 -10 49 -19 63 -19 28 0 85 -26 85 -38 0 -8 -66 -30 -210 -69
-77 -22 -117 -27 -210 -27 -63 0 -134 6 -158 13 -33 9 -47 9 -57 1 -8 -7 -23
-9 -35 -5 -31 10 -27 -33 5 -45 14 -5 79 -39 144 -75 181 -100 204 -108 363
-115 76 -3 142 -10 147 -15 10 -10 -4 -43 -121 -300 -72 -157 -152 -397 -172
-520 -8 -49 -25 -182 -37 -295 -23 -218 -23 -465 1 -666 10 -85 9 -93 -13
-145 -51 -116 -55 -312 -10 -454 32 -101 114 -254 220 -412 102 -153 115 -168
213 -247 58 -46 115 -100 128 -119 13 -19 81 -94 151 -167 118 -121 129 -135
134 -175 4 -37 1 -47 -17 -58 -22 -15 -162 -232 -228 -354 -61 -111 -168 -333
-168 -347 0 -7 -37 -74 -83 -147 -124 -200 -267 -472 -298 -569 -34 -107 -70
-197 -148 -375 -74 -166 -169 -409 -204 -520 -14 -44 -35 -104 -47 -134 -24
-62 -20 -98 14 -130 23 -21 27 -22 126 -12 56 6 212 11 345 11 195 0 267 -4
360 -20 64 -10 122 -17 130 -14 31 12 29 106 -3 119 -10 4 -55 11 -102 15
-128 13 -314 46 -415 75 -49 14 -97 28 -106 30 -9 2 -35 13 -58 24 -33 18 -41
27 -41 50 0 29 56 124 120 201 20 25 60 79 89 120 28 41 92 127 141 190 50 63
111 144 137 180 26 36 73 97 104 135 79 98 194 282 251 403 l48 102 48 0 c26
0 76 -11 112 -24 l65 -24 3 -140 c5 -252 -81 -742 -175 -998 -2 -6 9 -19 24
-29 49 -33 107 -35 263 -9 80 13 186 24 236 24 69 0 95 4 104 15 8 10 31 15
71 15 33 0 59 3 59 6 0 18 -26 46 -58 63 -35 18 -73 27 -286 72 -109 22 -199
63 -192 87 3 10 10 37 16 62 28 118 197 440 230 440 4 0 12 -17 19 -38 8 -20
64 -136 124 -257 216 -430 200 -395 187 -421 -11 -19 -10 -30 4 -65 17 -42 12
-58 -18 -59 -4 0 -45 -22 -91 -50 -99 -60 -148 -111 -186 -195 -18 -40 -44
-76 -71 -99 -78 -67 -84 -95 -33 -172 37 -55 56 -67 246 -152 96 -43 214 -56
494 -57 255 0 262 1 365 29 58 15 132 42 165 58 72 36 191 122 199 144 14 37
5 61 -34 90 -28 20 -43 41 -51 69 -25 93 -138 227 -282 335 -49 37 -57 59 -31
81 29 24 33 52 12 86 -18 30 -18 34 -4 62 9 16 24 36 34 43 39 28 252 430 354
668 74 170 122 335 212 725 50 218 70 410 91 904 14 340 10 487 -20 601 -16
61 -23 96 -24 120 -2 30 -18 40 -96 59 -90 22 -399 61 -496 62 -115 1 -114 4
18 114 65 54 179 144 253 199 132 97 162 120 239 181 146 116 224 175 230 175
4 0 8 -16 9 -35 1 -19 13 -52 27 -72 14 -21 25 -52 25 -70 0 -37 1 -38 86 -20
83 18 178 89 269 202 39 48 80 99 92 113 12 15 23 25 26 22 2 -3 -2 -45 -10
-95 -16 -103 -11 -256 12 -353 16 -66 54 -148 104 -222 17 -25 31 -53 31 -63
0 -23 29 -80 85 -168 106 -164 163 -321 131 -358 -59 -69 -116 -171 -140 -251
-9 -30 -25 -77 -36 -105 -10 -27 -51 -139 -90 -249 -39 -109 -79 -215 -89
-235 -32 -63 -133 -323 -153 -396 -11 -38 -23 -74 -27 -80 -19 -26 -43 -111
-43 -148 1 -23 -11 -75 -25 -116 -18 -54 -23 -84 -19 -115 7 -49 7 -44 0 -182
-5 -94 -3 -122 15 -187 11 -42 23 -93 25 -114 7 -52 49 -208 70 -257 17 -42
72 -223 79 -266 31 -168 84 -362 132 -475 41 -97 64 -186 65 -250 0 -22 11
-77 24 -122 l23 -83 -36 -5 c-20 -3 -76 -15 -126 -25 -49 -11 -108 -22 -130
-26 -22 -3 -101 -25 -175 -49 -133 -43 -312 -91 -440 -117 -55 -11 -66 -17
-68 -35 -4 -28 18 -39 115 -53 108 -15 168 -12 273 15 83 22 116 25 265 24 94
0 220 -6 280 -13 131 -16 168 -8 201 42 23 33 23 33 4 86 -10 30 -23 80 -29
112 -7 33 -19 88 -27 124 -27 120 -50 465 -45 684 12 531 5 683 -38 809 -27
79 -62 152 -101 214 -30 47 0 30 71 -39 83 -82 145 -151 180 -200 13 -18 59
-79 104 -135 78 -99 113 -145 244 -328 36 -49 70 -94 76 -100 20 -17 176 -235
222 -309 64 -104 62 -109 -56 -247 -85 -98 -219 -260 -251 -303 -30 -39 -99
-101 -158 -140 -40 -27 -94 -91 -121 -144 -20 -39 -1 -51 62 -40 44 8 73 25
186 111 73 56 172 138 220 182 156 145 327 279 398 311 29 13 78 40 108 60 49
33 55 41 55 71 0 47 -33 106 -67 122 -15 7 -70 15 -122 17 -52 3 -100 9 -107
14 -6 6 -24 38 -38 73 -15 34 -32 71 -37 82 -5 11 -31 81 -58 155 -61 168
-111 289 -166 406 -24 49 -48 108 -54 130 -6 23 -20 51 -31 64 -12 13 -30 39
-42 58 -21 33 -182 161 -259 205 -22 12 -39 27 -39 32 0 25 69 151 145 265 46
69 129 215 185 325 146 286 165 318 210 359 22 20 44 36 48 36 8 0 25 25 146
214 83 129 266 498 280 566 42 199 54 270 60 350 7 92 6 98 -27 181 -78 197
-179 259 -422 259 -132 0 -153 10 -171 82 -10 40 -13 43 -40 40 -16 -2 -46
-14 -67 -28 -36 -23 -39 -24 -68 -8 -42 21 -114 89 -140 130 -33 54 -29 213 9
365 41 160 125 342 210 449 7 9 52 -51 58 -78 3 -15 19 -65 35 -112 16 -47 34
-109 40 -137 8 -42 15 -53 30 -53 15 0 19 7 19 33 0 17 3 42 6 54 5 18 10 14
35 -33 27 -53 84 -205 108 -291 8 -28 29 -61 63 -95 l51 -52 49 53 c27 29 60
76 75 105 14 28 33 60 43 71 10 11 23 49 29 85 16 92 18 102 56 288 52 250 91
432 104 478 6 23 11 69 10 102 -1 33 1 64 4 68 3 5 17 90 31 189 32 217 36
233 77 301 29 47 39 55 93 75 97 35 136 58 136 77 0 23 19 42 42 42 14 0 18 8
18 31 0 46 20 111 43 136 10 12 33 27 50 33 18 7 44 18 60 26 21 12 27 12 27
2 0 -7 5 -45 10 -85 l9 -71 -36 -39 c-20 -21 -67 -84 -104 -140 -99 -151 -129
-242 -129 -397 0 -202 69 -426 164 -533 27 -31 42 -29 137 17 46 22 91 40 100
40 25 0 141 81 135 94 -94 218 -131 313 -148 375 -24 93 -29 256 -9 321 l13
45 23 -75 c12 -41 43 -131 70 -200 26 -69 54 -147 61 -175 27 -96 26 -430 -2
-586 -5 -31 -2 -39 21 -58 15 -11 34 -21 41 -21 20 0 34 -33 34 -79 0 -31 6
-44 27 -61 32 -25 44 -22 61 14 20 41 24 26 12 -47 -13 -80 -6 -101 28 -92 13
3 33 16 42 28 15 18 20 19 33 9 9 -7 18 -30 22 -52 4 -21 17 -53 31 -71 13
-18 24 -36 24 -41 0 -8 83 -225 105 -273 7 -16 25 -82 40 -145 15 -63 33 -121
39 -129 6 -8 25 -57 43 -110 48 -148 118 -332 142 -377 12 -22 32 -83 46 -135
13 -52 40 -134 58 -184 33 -86 43 -125 67 -262 6 -34 28 -99 50 -145 21 -46
42 -101 46 -123 4 -22 15 -52 25 -67 11 -14 19 -40 19 -57 0 -17 15 -71 34
-119 35 -90 57 -160 62 -201 1 -13 30 -107 63 -210 33 -102 90 -280 126 -396
126 -401 188 -590 221 -675 18 -47 36 -98 40 -115 4 -16 13 -37 21 -47 8 -9
16 -25 18 -35 2 -10 4 -18 5 -18 1 0 3 -11 6 -25 4 -26 86 -289 186 -600 33
-102 62 -197 65 -213 9 -53 51 -183 91 -277 l40 -95 -31 -59 c-33 -62 -95
-119 -171 -158 -126 -64 -220 -182 -256 -318 -31 -120 -124 -391 -150 -437
-41 -71 -39 -90 6 -99 39 -7 48 0 111 91 53 76 166 211 302 360 192 211 219
246 245 309 l23 55 30 -72 c64 -152 96 -246 126 -369 35 -141 35 -141 100 -95
22 15 27 25 22 41 -3 11 -7 27 -9 34 -1 8 -15 29 -30 48 -15 19 -33 51 -40 72
-7 20 -23 57 -34 82 -60 130 -86 206 -109 315 -27 133 -27 197 2 530 8 88 22
241 30 340 34 380 79 601 198 955 36 108 72 257 82 345 12 91 56 239 88 294
56 94 131 135 327 176 98 20 143 19 163 -3 18 -20 57 -135 57 -169 0 -15 -10
-28 -28 -37 -16 -8 -58 -46 -93 -84 -56 -58 -70 -81 -91 -146 -23 -68 -26 -90
-23 -184 4 -129 25 -201 83 -291 23 -35 43 -69 43 -75 3 -28 -5 -55 -31 -106
-15 -30 -42 -91 -60 -135 -18 -44 -82 -177 -143 -295 -61 -118 -135 -264 -165
-325 -52 -105 -102 -233 -102 -262 0 -14 24 -26 77 -37 32 -7 32 -7 49 50 18
62 169 423 208 499 9 17 16 35 16 40 0 6 39 89 86 185 48 96 92 186 98 200 7
14 18 25 26 25 14 0 56 -95 65 -147 3 -16 12 -56 19 -90 31 -137 40 -284 41
-660 0 -322 2 -379 15 -391 13 -12 37 -13 150 -5 159 12 271 -1 336 -38 42
-25 83 -31 100 -15 5 6 64 -2 153 -20 113 -23 146 -26 153 -17 13 21 11 23
-59 70 -84 55 -238 119 -358 147 -204 49 -262 65 -310 89 -27 13 -52 26 -54
28 -2 2 -11 38 -19 81 -12 63 -15 173 -16 573 -1 368 -5 521 -15 595 l-14 100
31 105 c26 89 98 256 249 580 42 90 84 190 88 211 2 10 35 91 73 181 96 224
157 374 203 498 47 131 111 269 116 254 2 -6 -4 -69 -13 -140 -22 -172 -29
-772 -15 -1254 13 -401 18 -456 43 -454 12 1 17 -11 22 -45 29 -226 40 -610
19 -646 -6 -11 -40 -30 -80 -44 -37 -13 -140 -59 -228 -101 -88 -42 -182 -86
-209 -99 -27 -12 -68 -38 -91 -57 -23 -19 -47 -34 -54 -34 -15 0 -14 -15 2
-29 26 -21 412 53 592 114 22 8 78 19 125 25 47 6 113 18 148 27 88 22 86 43
-13 140 -41 40 -75 77 -75 81 0 6 18 65 114 384 56 187 70 268 63 384 l-6 101
72 21 c99 30 246 45 342 37 174 -14 305 -44 413 -92 78 -36 105 -44 114 -35
20 20 87 14 195 -17 56 -16 106 -32 112 -35 17 -11 139 -317 161 -406 6 -25
25 -87 41 -139 20 -64 28 -104 24 -125 -12 -59 -46 -140 -73 -173 -74 -92
-114 -131 -143 -137 -17 -3 -76 -28 -132 -55 -56 -27 -138 -65 -182 -86 -44
-20 -91 -43 -103 -51 l-24 -16 21 -14 c18 -13 24 -13 48 -1 31 16 117 45 151
52 12 2 77 9 145 15 243 21 329 31 353 40 14 6 52 10 84 10 48 0 64 4 89 26
55 46 33 117 -49 159 -38 19 -50 31 -50 48 0 12 -7 33 -16 45 -13 19 -15 38
-9 100 3 42 6 97 6 122 -1 25 6 96 15 158 9 63 17 176 18 252 l1 139 30 3 c37
4 37 1 -8 193 -20 83 -61 256 -92 385 -31 129 -58 251 -61 270 -2 19 -15 91
-28 160 -33 167 -54 343 -71 590 -24 345 -76 737 -116 885 -17 61 -33 126 -36
145 -11 77 -81 177 -267 385 -32 36 -57 67 -55 69 10 9 263 97 334 116 48 13
165 63 290 125 233 115 277 149 334 259 60 114 38 173 -75 196 -43 9 -54 15
-50 27 4 10 -23 48 -81 110 -101 109 -193 220 -193 233 0 5 -26 44 -59 87 -32
43 -61 91 -65 107 -4 16 -27 53 -52 81 -24 29 -44 56 -44 62 0 5 -32 54 -71
109 -38 54 -84 124 -101 154 -18 30 -50 81 -71 112 -24 34 -40 69 -40 86 0 27
57 152 245 542 l80 164 22 -44 c18 -39 21 -62 21 -170 -1 -111 -4 -138 -34
-240 -18 -63 -43 -143 -57 -177 -13 -34 -24 -66 -24 -71 0 -18 125 -90 185
-107 33 -9 68 -18 78 -21 11 -3 17 0 17 10 0 21 35 29 59 14 57 -36 101 77
126 327 7 63 -4 153 -32 270 -19 80 -112 260 -180 346 l-44 57 27 53 c15 30
46 86 69 124 23 39 56 98 74 132 17 34 49 90 71 124 46 71 49 89 18 89 -24 0
-39 -20 -131 -170 -26 -41 -60 -95 -77 -120 -48 -70 -130 -203 -130 -212 0 -4
-28 6 -62 22 -121 56 -250 50 -387 -21 -90 -46 -146 -91 -182 -146 -69 -105
-105 -157 -114 -167 -25 -25 -65 -92 -65 -108 0 -21 37 -48 66 -48 34 0 49
-25 35 -57 -15 -33 -2 -47 31 -34 21 8 29 6 47 -15 18 -21 29 -24 90 -24 l70
0 7 38 c16 86 120 312 144 312 3 0 26 13 51 29 44 28 119 50 119 33 0 -4 -36
-69 -81 -143 -96 -159 -143 -247 -189 -349 -42 -92 -67 -130 -86 -130 -9 0
-42 20 -74 45 -92 71 -150 97 -221 100 -52 2 -65 6 -80 26 -30 38 -89 146 -89
162 0 8 -10 21 -21 29 -21 13 -21 16 -8 101 11 75 18 92 47 124 19 21 41 49
50 62 15 22 15 25 -10 45 -14 11 -33 26 -42 31 -16 9 -16 15 3 94 18 76 31
111 31 84 0 -5 14 -31 32 -57 32 -49 68 -159 68 -208 0 -21 5 -28 19 -28 14 0
40 35 95 126 42 70 76 132 76 139 0 31 -85 126 -164 184 -47 34 -86 65 -86 68
0 16 86 -15 161 -58 48 -27 92 -49 99 -49 10 0 12 35 7 167 l-5 166 -43 84
c-56 109 -77 128 -139 127 -65 -1 -130 -27 -207 -85 l-64 -49 31 39 c22 27 56
50 108 74 57 27 83 45 102 73 l25 37 -25 16 c-33 22 -98 92 -106 114 -8 24
-56 47 -98 47 -43 0 -43 1 -108 -188 -27 -81 -59 -163 -70 -182 l-19 -35 6 58
c8 82 23 140 61 237 19 47 34 90 34 94 0 5 -32 5 -72 0 -40 -4 -99 -7 -132 -6
l-59 2 5 -101 5 -101 -23 29 c-13 15 -23 36 -24 45 0 38 -70 49 -130 20 -31
-15 -35 -22 -38 -59 -3 -34 3 -51 31 -92 42 -61 73 -125 82 -171 7 -33 4 -30
-60 45 -37 44 -74 86 -83 93 -31 24 -60 14 -91 -30 -16 -24 -39 -53 -51 -65
-40 -40 -23 -62 94 -120 58 -29 110 -62 116 -73 13 -24 13 -24 -46 -4 -95 32
-269 1 -233 -42 8 -10 9 -29 4 -62 -23 -144 12 -198 97 -149 54 31 137 50 206
45 l54 -3 -33 -45 c-18 -25 -54 -85 -80 -135 -25 -50 -58 -107 -71 -127 -14
-20 -30 -51 -37 -69 -7 -19 -21 -53 -32 -77 -23 -50 -24 -99 -4 -126 20 -26
19 -66 -1 -95 -13 -18 -15 -34 -9 -69 4 -26 8 -62 10 -80 2 -43 17 -57 43 -43
34 18 41 13 53 -34 21 -81 77 -91 218 -39 109 41 130 33 212 -91 44 -65 56
-91 47 -97 -24 -15 -48 -9 -48 12 0 24 -21 36 -89 48 -41 8 -62 7 -87 -4 -18
-8 -45 -14 -58 -14 -49 0 -169 -64 -206 -111 -43 -53 -78 -112 -95 -160 -7
-20 -32 -63 -55 -95 -22 -32 -88 -131 -146 -219 -58 -88 -120 -176 -138 -195
-29 -30 -119 -140 -235 -283 -32 -40 -33 -44 -26 -102 3 -33 6 -72 5 -87 0
-15 24 -83 54 -150 29 -68 61 -148 71 -178 10 -30 38 -94 62 -142 23 -48 47
-97 52 -111 15 -40 126 -170 198 -233 78 -68 81 -71 90 -103 6 -26 -16 -75
-55 -123 -41 -49 -39 -84 12 -168 24 -41 59 -113 77 -160 18 -49 43 -96 59
-110 27 -25 50 -61 50 -78 0 -5 -10 -24 -23 -43 -27 -40 -77 -164 -108 -269
-12 -41 -36 -104 -54 -140 -18 -36 -63 -137 -100 -225 -37 -88 -80 -191 -97
-228 -16 -38 -31 -81 -33 -95 -2 -15 -4 -27 -5 -27 -1 0 -3 -10 -6 -22 -4 -23
-59 -159 -101 -252 -14 -30 -31 -72 -39 -94 -15 -42 -189 -375 -205 -392 -18
-18 -9 21 16 67 16 29 25 63 25 90 0 24 6 53 14 64 12 17 12 28 0 79 -18 80
-18 351 1 497 34 266 45 493 34 748 -5 135 -13 279 -18 320 -17 135 -59 303
-109 438 -27 73 -46 135 -41 137 4 3 13 -5 20 -17 25 -48 126 -175 189 -238
116 -114 200 -241 200 -302 0 -23 -4 -28 -26 -28 -36 0 -108 -53 -128 -94 -21
-44 -20 -132 2 -173 9 -17 36 -59 59 -92 l41 -61 -13 -49 c-7 -27 -16 -94 -20
-149 -7 -103 1 -142 30 -142 9 0 17 -15 20 -37 13 -76 21 -87 43 -60 14 16 52
226 52 286 0 25 12 78 25 116 31 86 65 268 65 347 0 41 -11 88 -36 160 -20 57
-53 153 -74 213 -21 61 -65 171 -98 245 -62 141 -250 517 -303 607 -16 28 -41
93 -54 145 -41 155 -131 319 -331 604 -117 167 -117 167 -95 183 l22 17 -46
59 c-49 64 -139 146 -186 170 -35 19 -67 6 -91 -36 l-17 -30 -58 29 c-32 16
-74 35 -94 41 -20 6 -46 22 -57 34 -20 21 -21 28 -13 79 8 48 53 158 65 158 2
0 33 -13 68 -30 34 -16 72 -30 84 -30 12 0 41 23 74 60 39 44 61 60 79 60 48
0 71 34 71 104 0 25 4 48 10 51 5 3 7 25 4 48 -5 35 -1 48 20 77 63 87 75 116
82 185 9 103 -9 202 -56 295 -36 71 -117 179 -143 189 -5 2 -18 12 -29 23 -19
19 -19 19 61 12 45 -3 81 -5 81 -3 0 19 -65 167 -84 192 -14 18 -30 45 -36 61
-18 47 -101 176 -120 186 -9 5 -28 38 -40 72 -31 83 -61 130 -104 163 -33 25
-41 26 -123 24 -83 -3 -90 -4 -125 -35 -30 -27 -47 -33 -105 -39 -95 -9 -101
-12 -108 -47 -4 -17 -26 -50 -49 -73 -36 -35 -54 -45 -117 -59 -41 -10 -82
-20 -91 -22 -9 -3 -20 -19 -24 -37 -4 -22 -33 -58 -90 -113 -64 -63 -85 -91
-94 -124 -6 -23 -9 -44 -7 -46 2 -3 24 2 48 10 24 9 52 16 63 16 28 0 3 -26
-32 -33 -36 -7 -89 -74 -113 -142 -20 -57 -23 -113 -13 -202 6 -50 8 -53 35
-53 22 0 29 5 29 19 0 40 59 95 133 124 131 50 180 29 62 -26 -121 -58 -256
-211 -240 -274 14 -57 135 -135 135 -88 0 55 123 190 206 225 33 15 71 21 128
21 95 2 153 -18 191 -63 29 -35 24 -53 -29 -93 -19 -15 -42 -38 -51 -51 -16
-25 -15 -26 26 -71 46 -50 45 -42 15 -198 -8 -38 -21 -106 -29 -150 -33 -172
-59 -248 -107 -304 l-21 -24 -30 29 c-27 26 -37 29 -93 28 -125 -1 -264 -95
-325 -218 -33 -68 -37 -86 -20 -103 10 -10 -32 -245 -66 -368 -10 -34 -17
-163 -25 -409 -6 -198 -13 -363 -16 -368 -3 -5 -32 15 -63 46 -60 57 -190 145
-282 191 -129 65 -247 144 -323 216 -45 42 -87 88 -95 102 -12 22 -10 28 24
73 45 59 85 146 85 186 0 34 -16 68 -32 68 -20 0 -191 108 -292 185 -55 41
-103 75 -107 75 -16 0 -214 664 -207 696 5 25 134 -88 160 -140 11 -23 26 -48
33 -56 15 -16 85 -191 103 -255 6 -22 20 -71 32 -109 11 -38 20 -73 20 -77 0
-4 4 -19 10 -34 8 -20 13 -24 27 -16 24 14 110 41 128 41 8 0 15 8 15 18 0 18
86 116 109 123 11 4 10 18 -7 74 -24 83 -81 228 -119 305 -35 69 -146 181
-241 244 -61 40 -88 51 -159 65 l-86 16 -69 89 -68 89 72 45 c40 24 106 68
148 97 41 29 100 65 130 80 51 26 227 128 310 180 94 58 261 156 310 180 30
15 70 41 88 56 18 16 54 40 80 53 48 25 86 60 116 108 17 25 16 27 -3 37 -11
6 -29 11 -40 11 -36 0 -130 -41 -177 -76 -25 -19 -67 -43 -94 -54 -65 -26
-180 -83 -255 -128 -92 -55 -375 -242 -420 -278 -69 -55 -303 -184 -335 -184
-8 0 -120 249 -140 313 -7 21 -17 36 -23 34 -19 -6 -8 -107 18 -157 37 -75 44
-93 50 -136 3 -22 10 -56 15 -74 5 -19 9 -34 7 -35 -1 -1 -26 -18 -55 -39 -81
-58 -181 -81 -246 -56 -32 12 -45 -5 -20 -26 18 -14 17 -15 -11 -10 -16 2 -38
8 -47 11 -17 7 -20 3 -33 -42 -3 -8 -15 -9 -41 -3 -47 11 -62 4 -66 -28 -2
-19 -10 -28 -28 -32 -46 -10 -87 -43 -115 -93 -22 -40 -26 -58 -22 -93 l5 -44
-78 -68 c-43 -37 -108 -92 -146 -122 -37 -30 -86 -71 -108 -91 -61 -53 -178
-119 -212 -119 -35 0 -49 10 -94 69 l-34 44 21 36 c147 256 166 309 160 456
-2 71 -7 87 -40 145 -21 37 -60 85 -91 112 -33 29 -59 62 -66 83 -9 28 -19 36
-48 44 -65 17 -206 29 -247 22 -22 -4 -50 -3 -61 2 -30 13 -204 -33 -287 -74
-89 -45 -172 -104 -198 -140 -18 -26 -21 -40 -16 -91 6 -64 -4 -104 -29 -123
-35 -25 -26 -161 16 -260 11 -25 37 -64 60 -88 22 -24 40 -50 40 -56 0 -6 -9
-29 -20 -51 -23 -44 -19 -63 16 -78 25 -12 29 -26 25 -92 -2 -26 4 -41 23 -59
23 -22 30 -23 90 -16 55 5 67 4 72 -9 16 -41 115 -3 189 73 62 64 92 68 36 5
-23 -26 -46 -65 -52 -88 -17 -64 -44 -109 -77 -129 -45 -26 -110 -31 -161 -13
-49 18 -104 21 -130 6 -46 -24 -123 -172 -188 -360 -14 -41 -32 -87 -39 -101
-7 -15 -15 -39 -18 -55 -6 -32 -30 -54 -58 -54 -10 0 -37 -21 -61 -46 -23 -25
-66 -70 -95 -100 -45 -45 -52 -56 -43 -73 29 -52 0 -109 -90 -178 -202 -155
-400 -314 -481 -386 -51 -45 -118 -103 -148 -127 -31 -25 -80 -66 -110 -92
-60 -51 -329 -248 -339 -248 -9 0 -72 147 -77 180 -9 53 -45 237 -54 275 -5
22 -14 69 -20 105 -6 36 -24 135 -40 220 -17 85 -32 175 -35 200 -9 91 -87
490 -119 611 -29 111 -40 207 -23 190 16 -16 43 -13 90 10 55 28 59 35 52 97
-5 41 -3 52 8 52 18 0 43 29 50 59 4 18 -3 32 -33 62 -21 21 -43 39 -49 39
-23 0 19 56 98 133 100 97 121 140 121 246 0 143 -50 265 -157 390 -92 106
-237 138 -392 86 -86 -28 -105 -28 -78 3 34 37 21 60 -72 129 -2 2 1 15 8 30
11 23 9 30 -9 55 -19 26 -19 30 -5 57 15 29 14 30 -22 48 -34 16 -39 24 -49
75 -14 73 -1 103 71 157 47 35 53 44 59 87 3 26 11 53 17 60 8 10 1 15 -30 24
-48 13 -50 20 -16 41 24 14 24 16 9 37 -14 20 -21 22 -62 16 l-47 -7 24 20 23
19 -42 38 c-44 39 -56 41 -126 21 -18 -6 -24 -1 -33 27 -7 18 -15 44 -17 57
-3 13 -11 36 -19 52 -8 15 -15 38 -15 51 0 13 -8 35 -17 48 -10 14 -28 59 -40
100 -26 93 -66 201 -128 350 -68 165 -86 211 -95 248 -16 65 -41 75 -117 44z
m470 -1913 c7 -1 18 -1 24 0 9 1 7 -8 -5 -29 -19 -34 -17 -36 46 -80 21 -15
20 -16 -50 -79 -66 -61 -71 -64 -84 -46 -18 25 -18 104 1 184 19 79 23 85 41
66 9 -8 21 -16 27 -16z m4132 -690 c-19 -75 -159 -441 -214 -561 l-38 -83 -7
40 c-3 22 -7 60 -8 85 -3 66 -69 160 -126 180 -31 10 -44 22 -52 44 -5 16 -10
30 -10 32 0 1 60 48 133 104 72 55 157 121 187 146 30 25 75 59 100 75 54 36
58 29 35 -62z m-3847 -459 c13 -21 82 -60 106 -60 9 0 18 -12 21 -27 4 -16 10
-46 15 -68 5 -22 12 -79 16 -125 3 -47 21 -146 39 -220 18 -74 44 -196 59
-270 14 -74 40 -191 56 -260 43 -182 111 -508 116 -560 3 -24 16 -88 29 -142
31 -122 31 -120 -2 -107 -18 7 -69 8 -142 3 -133 -8 -102 -29 -243 171 -141
199 -211 287 -296 366 -102 96 -148 124 -262 159 -146 46 -229 118 -271 237
-31 86 -33 109 -19 187 13 79 22 107 58 184 13 30 22 63 19 75 -8 30 30 73 71
82 31 6 32 6 22 -19 -13 -34 -17 -61 -32 -174 -11 -82 -10 -102 5 -160 22 -82
54 -119 112 -127 51 -8 99 10 170 65 53 41 76 70 154 192 38 58 58 105 85 200
36 126 86 355 86 395 0 28 11 29 28 3z m5053 -250 c44 -41 51 -51 39 -60 -36
-24 -56 -12 -83 50 -14 33 -22 60 -18 60 4 0 32 -22 62 -50z m3735 -114 c63
-41 67 -60 39 -158 -54 -188 -83 -473 -85 -848 l-1 -115 -34 39 c-32 35 -67
110 -80 168 -2 13 -11 50 -20 83 -8 33 -20 106 -25 161 -9 91 -8 117 14 238
22 130 22 136 6 163 -27 44 -71 80 -123 102 -27 12 -45 25 -42 31 4 6 61 60
127 120 l120 109 31 -33 c18 -18 50 -45 73 -60z m-2321 -126 c75 -117 176
-330 299 -627 64 -155 123 -303 132 -330 9 -26 38 -95 65 -151 54 -115 55
-101 -11 -203 -87 -134 -191 -414 -239 -643 -33 -152 -66 -404 -58 -443 2 -13
1 -26 -4 -29 -4 -2 -6 -11 -3 -19 3 -7 0 -74 -6 -147 -8 -90 -10 -215 -5 -387
7 -251 8 -255 32 -277 13 -12 43 -25 67 -28 30 -5 52 -16 72 -38 57 -60 126
-109 145 -103 18 6 19 3 13 -37 -9 -52 -53 -153 -92 -211 -150 -218 -171 -293
-179 -632 -4 -174 -1 -264 10 -370 9 -77 19 -178 22 -225 3 -47 8 -105 10
-130 5 -41 2 -38 -28 40 -24 61 -30 90 -24 101 7 11 4 24 -11 45 -11 16 -23
45 -26 65 -3 20 -10 49 -17 65 -6 16 -33 103 -59 194 -81 272 -106 351 -139
429 -17 41 -38 100 -46 130 -8 31 -40 117 -71 191 -31 74 -61 153 -66 175 -5
22 -18 67 -29 100 -22 65 -59 205 -65 245 -3 22 -17 70 -82 291 -11 36 -26 78
-35 95 -8 16 -20 53 -26 83 -6 30 -20 74 -31 99 -11 25 -32 92 -47 151 -14 58
-42 144 -60 191 -19 47 -46 121 -59 165 -14 44 -38 107 -54 140 -25 52 -95
291 -107 366 -2 15 -27 89 -55 165 -27 77 -69 193 -93 259 -23 66 -53 145 -65
175 -12 30 -24 62 -25 70 -2 8 -4 15 -5 15 -1 0 -3 8 -5 18 -4 23 -57 202
-105 357 -21 68 -37 126 -35 128 4 5 74 -99 115 -173 97 -175 343 -507 426
-577 78 -64 163 -79 227 -39 40 24 78 88 103 170 7 25 30 73 50 106 70 116
109 225 158 445 41 184 46 226 52 385 5 154 12 235 20 235 2 0 24 -31 49 -70z
m3593 -124 c53 -8 155 -18 226 -22 l129 -7 -74 -27 c-73 -26 -195 -91 -294
-156 -86 -55 -193 -105 -201 -93 -25 42 -10 246 22 297 18 27 51 28 192 8z
m-6364 -279 c-7 -49 -24 -65 -24 -23 0 28 18 81 25 74 3 -3 2 -26 -1 -51z"/>
</g>
</svg>
